<mxfile host="Electron" agent="Mozilla/5.0 (Windows NT 10.0; Win64; x64) AppleWebKit/537.36 (KHTML, like Gecko) draw.io/26.0.15 Chrome/132.0.6834.196 Electron/34.2.0 Safari/537.36" version="26.0.15">
  <diagram name="Page-1" id="m6TEAWh8AtE3EjW0fmk2">
    <mxGraphModel dx="2269" dy="1597" grid="0" gridSize="10" guides="1" tooltips="1" connect="1" arrows="1" fold="1" page="1" pageScale="1" pageWidth="1700" pageHeight="1100" math="0" shadow="0">
      <root>
        <mxCell id="0" />
        <mxCell id="1" parent="0" />
        <mxCell id="zslz_9yW8Lj7yqCDgDTb-1" value="" style="whiteSpace=wrap;html=1;aspect=fixed;fillColor=#dae8fc;strokeColor=#6c8ebf;" vertex="1" parent="1">
          <mxGeometry x="650" y="338" width="469" height="469" as="geometry" />
        </mxCell>
        <mxCell id="zslz_9yW8Lj7yqCDgDTb-2" value="" style="endArrow=classic;html=1;rounded=0;" edge="1" parent="1">
          <mxGeometry width="50" height="50" relative="1" as="geometry">
            <mxPoint x="436" y="418" as="sourcePoint" />
            <mxPoint x="647" y="418" as="targetPoint" />
          </mxGeometry>
        </mxCell>
        <mxCell id="zslz_9yW8Lj7yqCDgDTb-3" value="" style="endArrow=classic;html=1;rounded=0;" edge="1" parent="1">
          <mxGeometry width="50" height="50" relative="1" as="geometry">
            <mxPoint x="439" y="473" as="sourcePoint" />
            <mxPoint x="650" y="473" as="targetPoint" />
          </mxGeometry>
        </mxCell>
        <mxCell id="zslz_9yW8Lj7yqCDgDTb-4" value="" style="endArrow=classic;html=1;rounded=0;" edge="1" parent="1">
          <mxGeometry width="50" height="50" relative="1" as="geometry">
            <mxPoint x="436" y="533" as="sourcePoint" />
            <mxPoint x="647" y="533" as="targetPoint" />
          </mxGeometry>
        </mxCell>
        <mxCell id="zslz_9yW8Lj7yqCDgDTb-5" value="" style="endArrow=classic;html=1;rounded=0;" edge="1" parent="1">
          <mxGeometry width="50" height="50" relative="1" as="geometry">
            <mxPoint x="439" y="588" as="sourcePoint" />
            <mxPoint x="650" y="588" as="targetPoint" />
          </mxGeometry>
        </mxCell>
        <mxCell id="zslz_9yW8Lj7yqCDgDTb-6" value="" style="endArrow=classic;html=1;rounded=0;" edge="1" parent="1">
          <mxGeometry width="50" height="50" relative="1" as="geometry">
            <mxPoint x="440" y="661" as="sourcePoint" />
            <mxPoint x="651" y="661" as="targetPoint" />
          </mxGeometry>
        </mxCell>
        <mxCell id="zslz_9yW8Lj7yqCDgDTb-7" value="" style="endArrow=classic;html=1;rounded=0;" edge="1" parent="1">
          <mxGeometry width="50" height="50" relative="1" as="geometry">
            <mxPoint x="443" y="716" as="sourcePoint" />
            <mxPoint x="654" y="716" as="targetPoint" />
          </mxGeometry>
        </mxCell>
        <mxCell id="zslz_9yW8Lj7yqCDgDTb-8" value="" style="endArrow=classic;html=1;rounded=0;" edge="1" parent="1">
          <mxGeometry width="50" height="50" relative="1" as="geometry">
            <mxPoint x="1119" y="446" as="sourcePoint" />
            <mxPoint x="1330" y="446" as="targetPoint" />
          </mxGeometry>
        </mxCell>
        <mxCell id="zslz_9yW8Lj7yqCDgDTb-9" value="" style="endArrow=classic;html=1;rounded=0;" edge="1" parent="1">
          <mxGeometry width="50" height="50" relative="1" as="geometry">
            <mxPoint x="1122" y="501" as="sourcePoint" />
            <mxPoint x="1333" y="501" as="targetPoint" />
          </mxGeometry>
        </mxCell>
        <mxCell id="zslz_9yW8Lj7yqCDgDTb-10" value="" style="endArrow=classic;html=1;rounded=0;" edge="1" parent="1">
          <mxGeometry width="50" height="50" relative="1" as="geometry">
            <mxPoint x="1119" y="561" as="sourcePoint" />
            <mxPoint x="1330" y="561" as="targetPoint" />
          </mxGeometry>
        </mxCell>
        <mxCell id="zslz_9yW8Lj7yqCDgDTb-11" value="" style="endArrow=classic;html=1;rounded=0;" edge="1" parent="1">
          <mxGeometry width="50" height="50" relative="1" as="geometry">
            <mxPoint x="1122" y="616" as="sourcePoint" />
            <mxPoint x="1333" y="616" as="targetPoint" />
          </mxGeometry>
        </mxCell>
        <mxCell id="zslz_9yW8Lj7yqCDgDTb-12" value="" style="endArrow=classic;html=1;rounded=0;" edge="1" parent="1">
          <mxGeometry width="50" height="50" relative="1" as="geometry">
            <mxPoint x="1123" y="689" as="sourcePoint" />
            <mxPoint x="1334" y="689" as="targetPoint" />
          </mxGeometry>
        </mxCell>
        <mxCell id="zslz_9yW8Lj7yqCDgDTb-13" value="&lt;font style=&quot;font-size: 22px;&quot;&gt;clk&lt;/font&gt;" style="text;html=1;align=center;verticalAlign=middle;resizable=0;points=[];autosize=1;strokeColor=none;fillColor=none;" vertex="1" parent="1">
          <mxGeometry x="389" y="399" width="45" height="38" as="geometry" />
        </mxCell>
        <mxCell id="zslz_9yW8Lj7yqCDgDTb-14" value="&lt;font style=&quot;font-size: 22px;&quot;&gt;rst_n&lt;/font&gt;" style="text;html=1;align=center;verticalAlign=middle;resizable=0;points=[];autosize=1;strokeColor=none;fillColor=none;" vertex="1" parent="1">
          <mxGeometry x="371" y="452" width="67" height="38" as="geometry" />
        </mxCell>
        <mxCell id="zslz_9yW8Lj7yqCDgDTb-15" value="&lt;font style=&quot;font-size: 22px;&quot;&gt;coin_5&lt;/font&gt;" style="text;html=1;align=center;verticalAlign=middle;resizable=0;points=[];autosize=1;strokeColor=none;fillColor=none;" vertex="1" parent="1">
          <mxGeometry x="351" y="513" width="83" height="38" as="geometry" />
        </mxCell>
        <mxCell id="zslz_9yW8Lj7yqCDgDTb-16" value="&lt;font style=&quot;font-size: 22px;&quot;&gt;coin_10&lt;/font&gt;" style="text;html=1;align=center;verticalAlign=middle;resizable=0;points=[];autosize=1;strokeColor=none;fillColor=none;" vertex="1" parent="1">
          <mxGeometry x="343" y="568" width="95" height="38" as="geometry" />
        </mxCell>
        <mxCell id="zslz_9yW8Lj7yqCDgDTb-17" value="&lt;font style=&quot;font-size: 22px;&quot;&gt;coin_25&lt;/font&gt;" style="text;html=1;align=center;verticalAlign=middle;resizable=0;points=[];autosize=1;strokeColor=none;fillColor=none;" vertex="1" parent="1">
          <mxGeometry x="343" y="641" width="95" height="38" as="geometry" />
        </mxCell>
        <mxCell id="zslz_9yW8Lj7yqCDgDTb-18" value="&lt;font style=&quot;font-size: 22px;&quot;&gt;coin_return&lt;/font&gt;" style="text;html=1;align=center;verticalAlign=middle;resizable=0;points=[];autosize=1;strokeColor=none;fillColor=none;" vertex="1" parent="1">
          <mxGeometry x="314" y="696" width="128" height="38" as="geometry" />
        </mxCell>
        <mxCell id="zslz_9yW8Lj7yqCDgDTb-19" value="&lt;font style=&quot;font-size: 22px;&quot;&gt;dispense_item&lt;/font&gt;" style="text;html=1;align=center;verticalAlign=middle;resizable=0;points=[];autosize=1;strokeColor=none;fillColor=none;" vertex="1" parent="1">
          <mxGeometry x="1330" y="429" width="160" height="38" as="geometry" />
        </mxCell>
        <mxCell id="zslz_9yW8Lj7yqCDgDTb-20" value="&lt;font style=&quot;font-size: 22px;&quot;&gt;ret_5&lt;/font&gt;" style="text;html=1;align=center;verticalAlign=middle;resizable=0;points=[];autosize=1;strokeColor=none;fillColor=none;" vertex="1" parent="1">
          <mxGeometry x="1334" y="483" width="68" height="38" as="geometry" />
        </mxCell>
        <mxCell id="zslz_9yW8Lj7yqCDgDTb-21" value="&lt;font style=&quot;font-size: 22px;&quot;&gt;ret_10&lt;/font&gt;" style="text;html=1;align=center;verticalAlign=middle;resizable=0;points=[];autosize=1;strokeColor=none;fillColor=none;" vertex="1" parent="1">
          <mxGeometry x="1334" y="543" width="80" height="38" as="geometry" />
        </mxCell>
        <mxCell id="zslz_9yW8Lj7yqCDgDTb-22" value="&lt;font style=&quot;font-size: 22px;&quot;&gt;ret_25&lt;/font&gt;" style="text;html=1;align=center;verticalAlign=middle;resizable=0;points=[];autosize=1;strokeColor=none;fillColor=none;" vertex="1" parent="1">
          <mxGeometry x="1336" y="596" width="80" height="38" as="geometry" />
        </mxCell>
        <mxCell id="zslz_9yW8Lj7yqCDgDTb-23" value="&lt;font style=&quot;font-size: 22px;&quot;&gt;amount_display&lt;/font&gt;" style="text;html=1;align=center;verticalAlign=middle;resizable=0;points=[];autosize=1;strokeColor=none;fillColor=none;" vertex="1" parent="1">
          <mxGeometry x="1336" y="671" width="172" height="38" as="geometry" />
        </mxCell>
        <mxCell id="zslz_9yW8Lj7yqCDgDTb-24" value="&lt;font style=&quot;font-size: 28px;&quot;&gt;&lt;b&gt;VendingMachine&lt;/b&gt;&lt;/font&gt;" style="text;html=1;align=center;verticalAlign=middle;resizable=0;points=[];autosize=1;strokeColor=none;fillColor=none;" vertex="1" parent="1">
          <mxGeometry x="765" y="560" width="239" height="46" as="geometry" />
        </mxCell>
      </root>
    </mxGraphModel>
  </diagram>
</mxfile>
